<?xml version="1.0" encoding="utf-8"?>
<!-- Generator: Adobe Illustrator 26.0.0, SVG Export Plug-In . SVG Version: 6.00 Build 0)  -->
<svg version="1.1" id="Capa_1" xmlns="http://www.w3.org/2000/svg" xmlns:xlink="http://www.w3.org/1999/xlink" x="0px" y="0px"
	 viewBox="0 0 640 220" style="enable-background:new 0 0 640 220;" xml:space="preserve">
<style type="text/css">
	.st0{fill:#DDDDE0;}
	.st1{fill:none;}
	.st2{fill:#363636;}
	.st3{font-family:'Helvetica';}
	.st4{font-size:28px;}
	.st5{font-size:30px;}
</style>
<path class="st0" d="M16,220h608c8.8,0,16-7.2,16-16V16c0-8.8-7.2-16-16-16H16C7.2,0,0,7.2,0,16v188C0,212.8,7.2,220,16,220z"/>
<g>
	<rect x="139.3" y="76.6" class="st1" width="328.8" height="43.7"/>
	<text transform="matrix(1 0 0 1 139.2589 96.2058)"><tspan x="0" y="0" class="st2 st3 st4">+(</tspan><tspan x="26.8" y="2" class="st2 st3 st5">54)9 342 584 3447</tspan></text>
	<rect x="139.3" y="138.6" class="st1" width="443.8" height="43.7"/>
	<text transform="matrix(1 0 0 1 139.2589 160.2058)" class="st2 st3 st5">zenitestudio.dg@gmail.com </text>
	<text transform="matrix(1 0 0 1 462.9023 34.7703)" class="st2 st3 st4">CONTACTO</text>
</g>
</svg>
